<?xml version="1.0" encoding="utf-8"?>
<!-- Generator: Adobe Illustrator 21.0.0, SVG Export Plug-In . SVG Version: 6.00 Build 0)  -->
<svg version="1.1" id="Layer_1" xmlns="http://www.w3.org/2000/svg" xmlns:xlink="http://www.w3.org/1999/xlink" x="0px" y="0px"
	 viewBox="0 0 40 40" style="enable-background:new 0 0 40 40;" xml:space="preserve">
<style type="text/css">
	.st0{fill:#FFFFFF;}
</style>
<g>
	<g>
		<path class="st0" d="M15.2,3.7c0.9,0,1.6,0.7,1.6,1.6v9.8c0,0.9-0.7,1.6-1.6,1.6H5.4c-0.9,0-1.6-0.7-1.6-1.6V5.4
			c0-0.9,0.7-1.6,1.6-1.6h9.8 M15.2,2.1H5.4c-1.8,0-3.3,1.5-3.3,3.3v9.8c0,1.8,1.5,3.3,3.3,3.3h9.8c1.8,0,3.3-1.5,3.3-3.3V5.4
			C18.5,3.6,17,2.1,15.2,2.1L15.2,2.1z"/>
	</g>
	<g>
		<path class="st0" d="M34.9,3.7c0.9,0,1.6,0.7,1.6,1.6v9.8c0,0.9-0.7,1.6-1.6,1.6H25c-0.9,0-1.6-0.7-1.6-1.6V5.4
			c0-0.9,0.7-1.6,1.6-1.6h9.9 M34.9,2.1H25c-1.8,0-3.3,1.5-3.3,3.3v9.8c0,1.8,1.5,3.3,3.3,3.3h9.8c1.8,0,3.3-1.5,3.3-3.3V5.4
			C38.1,3.6,36.7,2.1,34.9,2.1L34.9,2.1z"/>
	</g>
	<g>
		<path class="st0" d="M15.2,23.4c0.9,0,1.6,0.7,1.6,1.6v9.8c0,0.9-0.7,1.6-1.6,1.6H5.4c-0.9,0-1.6-0.7-1.6-1.6V25
			c0-0.9,0.7-1.6,1.6-1.6H15.2 M15.2,21.7H5.4c-1.8,0-3.3,1.5-3.3,3.3v9.8c0,1.8,1.5,3.3,3.3,3.3h9.8c1.8,0,3.3-1.5,3.3-3.3V25
			C18.5,23.2,17,21.7,15.2,21.7L15.2,21.7z"/>
	</g>
	<g>
		<path class="st0" d="M34.9,23.4c0.9,0,1.6,0.7,1.6,1.6v9.8c0,0.9-0.7,1.6-1.6,1.6H25c-0.9,0-1.6-0.7-1.6-1.6V25
			c0-0.9,0.7-1.6,1.6-1.6H34.9 M34.9,21.7H25c-1.8,0-3.3,1.5-3.3,3.3v9.8c0,1.8,1.5,3.3,3.3,3.3h9.8c1.8,0,3.3-1.5,3.3-3.3V25
			C38.1,23.2,36.7,21.7,34.9,21.7L34.9,21.7z"/>
	</g>
</g>
</svg>
