<?xml version="1.0" encoding="utf-8"?>
<!-- Generator: Adobe Illustrator 21.0.0, SVG Export Plug-In . SVG Version: 6.00 Build 0)  -->
<svg version="1.1" id="Layer_1" xmlns="http://www.w3.org/2000/svg" xmlns:xlink="http://www.w3.org/1999/xlink" x="0px" y="0px"
	 viewBox="0 0 40 40" style="enable-background:new 0 0 40 40;" xml:space="preserve">
<style type="text/css">
	.st0{fill:#FFFFFF;}
</style>
<g>
	<path class="st0" d="M19.2,10.1c2.3,0,4.4,1.2,5.9,3H27c-1.8-2.7-4.6-4.5-7.8-4.5c-5.4,0-9.8,5-9.8,11.2S13.8,31,19.2,31
		c3.2,0,6-1.8,7.8-4.5h-1.8c-1.5,1.8-3.6,3-5.9,3c-4.5,0-8.2-4.4-8.2-9.8S14.7,10.1,19.2,10.1z"/>
	<path class="st0" d="M19.6,1.5C9.5,1.5,1.2,9.7,1.2,19.9s8.2,18.4,18.4,18.4S38,30,38,19.9S29.8,1.5,19.6,1.5z M19.6,36.8
		c-9.3,0-16.9-7.6-16.9-16.9S10.3,3,19.6,3s16.9,7.6,16.9,16.9S28.9,36.8,19.6,36.8z"/>
</g>
</svg>
