<?xml version="1.0" encoding="utf-8"?>
<!-- Generator: Adobe Illustrator 21.0.0, SVG Export Plug-In . SVG Version: 6.00 Build 0)  -->
<svg version="1.1" id="Layer_1" xmlns="http://www.w3.org/2000/svg" xmlns:xlink="http://www.w3.org/1999/xlink" x="0px" y="0px"
	 viewBox="0 0 40 40" style="enable-background:new 0 0 40 40;" xml:space="preserve">
<style type="text/css">
	.st0{fill:#FFFFFF;}
</style>
<g>
	<path class="st0" d="M20.2,0.9c-4.7,0-9.4,0-14.1,0c-1.7,0-2.3,0.6-2.3,2.2c0,5.4,0,10.9,0,16.3s0,10.8,0,16.3
		c0,1.7,0.6,2.3,2.3,2.3c4.7,0,9.4,0,14.1,0c1.5,0,2.2-0.6,2.2-2.2c0-10.9,0-21.9,0-32.8C22.4,1.5,21.8,0.9,20.2,0.9z M12.5,36.7
		c-2.4,0-4.8,0-7.2,0c0-11.5,0-22.9,0-34.4c2.4,0,4.8,0,7.2,0C12.5,13.7,12.5,25.2,12.5,36.7z M21.1,36.7c-2.4,0-4.8,0-7.2,0
		c0-11.5,0-22.9,0-34.4c2.4,0,4.8,0,7.2,0C21.1,13.7,21.1,25.2,21.1,36.7z"/>
	<path class="st0" d="M36.9,33.4c-0.5-4.2-1.1-8.5-1.6-12.7c-0.5-4-1-7.9-1.5-11.9c-0.3-2.1-0.5-4.2-0.8-6.3c-0.1-1-0.9-1.6-1.8-1.5
		c-2.1,0.3-4.3,0.5-6.4,0.8c-0.9,0.1-1.5,0.9-1.4,1.8c0.4,3.1,0.8,6.3,1.2,9.4c0.6,4.6,1.2,9.2,1.8,13.8c0.4,3.2,0.8,6.5,1.2,9.7
		c0.1,1,0.9,1.7,1.9,1.5c2.1-0.3,4.3-0.5,6.4-0.8c0.9-0.1,1.4-0.8,1.4-1.9C37.1,34.8,37,34.1,36.9,33.4z M28.9,36.8
		C27.4,25.5,26,14.3,24.5,3.1c2.4-0.3,4.7-0.6,7.1-0.9c1.4,11.2,2.9,22.4,4.3,33.7C33.5,36.2,31.2,36.5,28.9,36.8z"/>
	<path class="st0" d="M8.2,25.5c0,0.2,0,0.5,0.1,0.6c0.2,0.2,0.4,0.4,0.6,0.4c0.2,0,0.4-0.3,0.6-0.5c0.1-0.1,0-0.4,0-0.5
		c0-2,0-4,0-6c0-1.6,0-3.3,0-4.9c0-0.5,0.1-1.1,0-1.6c0-0.2-0.4-0.6-0.6-0.6c-0.2,0-0.5,0.3-0.7,0.5c-0.1,0.1,0,0.3,0,0.5
		C8.2,17.4,8.2,21.5,8.2,25.5z"/>
	<path class="st0" d="M17.5,26.6c0.5,0,0.7-0.3,0.7-0.9c0-2,0-4.1,0-6.1c0-2.1,0-4.1,0-6.2c0-0.7-0.2-1-0.7-0.9
		c-0.6,0-0.7,0.4-0.7,0.9c0,4.1,0,8.3,0,12.4C16.8,26.1,16.9,26.5,17.5,26.6z"/>
	<path class="st0" d="M30.1,13.2c-0.1-0.4-0.2-0.8-0.7-0.7c-0.4,0.1-0.6,0.4-0.5,0.8c0,0.1,0,0.2,0,0.2c0.5,4,1,8.1,1.6,12.1
		c0.1,0.5,0.3,0.8,0.8,0.7c0.5-0.1,0.6-0.4,0.5-0.9c-0.3-2.4-0.6-4.9-0.9-7.3C30.5,16.6,30.3,14.9,30.1,13.2z"/>
</g>
</svg>
