<?xml version="1.0" encoding="utf-8"?>
<!-- Generator: Adobe Illustrator 19.2.1, SVG Export Plug-In . SVG Version: 6.00 Build 0)  -->
<svg version="1.1" id="Layer_1" xmlns="http://www.w3.org/2000/svg" xmlns:xlink="http://www.w3.org/1999/xlink" x="0px" y="0px"
	 viewBox="0 0 336.6 29.6" style="enable-background:new 0 0 336.6 29.6;" xml:space="preserve">
<style type="text/css">
	.st0{fill:#FFFFFF;}
</style>
<g>
	<path class="st0" d="M53.4,7.5c-6.6,0-9.4,5.5-9.4,11c0,5.9,2.8,11,9.4,11c5.3,0,8-2.7,9.1-7.5H60c-0.8,3.2-2.8,5.3-6.5,5.3
		c-4.8,0-6.8-4.5-6.8-8.2h16C62.8,13.4,60.1,7.5,53.4,7.5z M53.4,9.7c4.1,0,6.5,3.6,6.6,7.4H46.5C47,13.3,49.2,9.7,53.4,9.7z"/>
	<path class="st0" d="M102.8,0.2L91.8,29H97l2.7-7.6h11.5l2.7,7.6h5.4L108.2,0.2H102.8z M101,17.5l4.3-12.4h0.1l4.3,12.4H101z"/>
	<polygon class="st0" points="317.2,15.8 326.1,8.1 322.7,8.1 311.2,18.2 311.2,0.2 308.6,0.2 308.6,28.9 311.2,28.9 311.2,21 
		315.3,17.6 323.5,28.9 326.7,28.9 	"/>
	<path class="st0" d="M92.5,0.2h-5V20c0,3.6-0.8,5.6-4,5.6c-3.1,0-4-1.9-4-5.2v-1.5h-5v1.5c0,5.3,2.5,9.2,8.6,9.2
		c8.3,0,9.5-5,9.5-10L92.5,0.2L92.5,0.2z"/>
	<path class="st0" d="M33.8,7.5c-2.9,0-5.7,1.7-6.6,4.2h-0.1V0.1h-2.5v28.8h2.5V16.8c0.1-4.1,2.5-7.1,6.5-7.1c4.1,0,5.3,2.7,5.3,6.3
		v13h2.5V15.6C41.5,10.6,39.7,7.5,33.8,7.5z"/>
	<polygon class="st0" points="0,2.5 10,2.5 10,28.9 12.7,28.9 12.7,2.5 22.8,2.5 22.8,0.2 0,0.2 	"/>
	<path class="st0" d="M298.7,13L298.7,13l-0.1-4.9h-2.3v20.8h2.5V17.8c0-4.4,3.1-7.7,7.7-7.5V7.8C302.8,7.7,300,9.6,298.7,13z"/>
	<path class="st0" d="M225.1,7.5c-6.6,0-9.4,5.5-9.4,11c0,5.9,2.8,11,9.4,11c5.3,0,8-2.7,9.1-7.5h-2.5c-0.8,3.2-2.8,5.3-6.5,5.3
		c-4.8,0-6.8-4.5-6.8-8.2h16C234.4,13.4,231.7,7.5,225.1,7.5z M225.1,9.7c4.1,0,6.5,3.6,6.6,7.4h-13.5
		C218.7,13.3,220.9,9.7,225.1,9.7z"/>
	<path class="st0" d="M240.5,1.9H238v6.2h-3.6v2.1h3.6v14.2c0,3.5,1.1,4.7,4.5,4.7c0.8,0,1.5-0.1,2.3-0.1v-2.2
		c-0.7,0.1-1.4,0.1-2.2,0.1c-1.8-0.1-2.1-1.1-2.1-2.7v-14h4.2V8.1h-4.2V1.9z"/>
	<path class="st0" d="M284.7,7.5c-6.3,0-9.8,5-9.8,11s3.5,11,9.8,11s9.8-5,9.8-11C294.5,12.6,291,7.5,284.7,7.5z M284.7,27.4
		c-4.8,0-7.3-4.5-7.3-8.9s2.5-8.9,7.3-8.9s7.3,4.5,7.3,8.9S289.5,27.4,284.7,27.4z"/>
	<polygon class="st0" points="135.8,22.7 135.7,22.7 127.8,0.2 120.7,0.2 120.7,28.9 125.5,28.9 125.5,6.7 125.6,6.7 133.5,28.9 
		137.7,28.9 145.7,6.7 145.7,6.7 145.7,28.9 150.5,28.9 150.5,0.2 143.5,0.2 	"/>
	<polygon class="st0" points="210.7,24.5 210.7,24.5 193.9,0.2 190.8,0.2 190.8,28.9 193.6,28.9 193.6,4.6 193.7,4.6 210.4,28.9 
		213.5,28.9 213.5,0.2 210.7,0.2 	"/>
	<polygon class="st0" points="272.5,8.1 267.1,25.9 267.1,25.9 262,8.1 259.1,8.1 254.1,25.9 254,25.9 248.7,8.1 246,8.1 
		252.6,28.9 255.4,28.9 260.5,11.4 260.6,11.4 265.7,28.9 268.5,28.9 275.2,8.1 	"/>
	<path class="st0" d="M163.1,0.2l-11,28.8h5.2l2.7-7.6h11.5l2.7,7.6h5.4L168.5,0.2H163.1z M161.3,17.5l4.4-12.4h0.1l4.3,12.4H161.3z
		"/>
</g>
<g>
	<path class="st0" d="M332.5,0c2.2,0,4.1,1.8,4.1,4.1c0,2.4-1.9,4.1-4.1,4.1c-2.3,0-4.1-1.8-4.1-4.1S330.3,0,332.5,0z M332.5,7.6
		c1.9,0,3.4-1.5,3.4-3.5s-1.5-3.5-3.4-3.5s-3.4,1.5-3.4,3.5S330.6,7.6,332.5,7.6z M330.9,1.7h1.9c1.1,0,1.7,0.5,1.7,1.4
		s-0.5,1.2-1.3,1.3l1.4,2.1h-0.8l-1.3-2.1h-0.8v2.1H331V1.7H330.9z M331.6,3.8h0.8c0.7,0,1.3,0,1.3-0.8c0-0.6-0.5-0.7-1.1-0.7h-1
		L331.6,3.8L331.6,3.8z"/>
</g>
</svg>
