<?xml version="1.0" encoding="utf-8"?>
<!-- Generator: Adobe Illustrator 19.2.1, SVG Export Plug-In . SVG Version: 6.00 Build 0)  -->
<svg version="1.1" id="Layer_1" xmlns="http://www.w3.org/2000/svg" xmlns:xlink="http://www.w3.org/1999/xlink" x="0px" y="0px"
	 viewBox="0 0 40 40" style="enable-background:new 0 0 40 40;" xml:space="preserve">
<style type="text/css">
	.st0{fill:#217346;}
</style>
<g>
	<path class="st0" d="M37.9,29.4c0-7.1,0-14.1,0-21.2c0-0.7,0-1.5-0.4-2.1c-0.6-0.4-1.4-0.4-2-0.4c-4.1,0-8.2,0-12.2,0
		c0-1.1,0-2.2,0-3.3h-2.4C14.6,3.6,8.3,4.6,2.1,5.7c0,9.5,0,19,0,28.5c6.2,1.1,12.4,2.1,18.7,3.3h2.5c0-1.2,0-2.4,0-3.7
		c4.2,0,8.5,0,12.7,0c0.7,0,1.7,0,1.9-0.9C38,31.8,37.9,30.6,37.9,29.4z M14.1,26.4c-0.7-1.7-1.5-3.3-2-5.1c-0.6,1.7-1.3,3.2-2,4.8
		c-0.9,0-1.8,0-2.7-0.1c1-2.1,2.1-4.1,3.1-6.2c-0.9-2.1-1.9-4.2-2.9-6.2c0.9-0.1,1.8-0.1,2.7-0.2c0.6,1.6,1.3,3.2,1.8,4.8
		c0.5-1.7,1.3-3.4,2-5c0.9-0.1,1.8-0.1,2.8-0.2c-1.1,2.2-2.2,4.5-3.3,6.7c1.1,2.3,2.3,4.6,3.4,6.8C16,26.5,15,26.5,14.1,26.4z
		 M36.7,32.6c-4.5,0-9,0-13.5,0c0-0.8,0-1.6,0-2.4c1.1,0,2.2,0,3.3,0c0-0.9,0-1.9,0-2.9c-1.1,0-2.2,0-3.3,0c0-0.5,0-1.1,0-1.6
		c1.1,0,2.2,0,3.3,0c0-1,0-1.9,0-2.9c-1.1,0-2.2,0-3.3,0c0-0.5,0-1.1,0-1.6c1.1,0,2.2,0,3.3,0c0-1,0-1.9,0-2.9c-1.1,0-2.2,0-3.3,0
		c0-0.5,0-1.1,0-1.6c1.1,0,2.2,0,3.3,0c0-1,0-1.9,0-2.9c-1.1,0-2.2,0-3.3,0c0-0.5,0-1.1,0-1.6c1.1,0,2.2,0,3.3,0c0-0.9,0-1.9,0-2.9
		c-1.1,0-2.2,0-3.3,0c0-0.8,0-1.6,0-2.4c4.5,0,9,0,13.5,0C36.7,15.5,36.7,24.1,36.7,32.6z"/>
	<path class="st0" d="M33.8,9.4c-1.9,0-3.8,0-5.7,0c0,1,0,1.9,0,2.9c1.9,0,3.8,0,5.7,0C33.8,11.3,33.8,10.3,33.8,9.4z"/>
	<path class="st0" d="M33.8,13.9c-1.9,0-3.8,0-5.7,0c0,0.9,0,1.9,0,2.9c1.9,0,3.8,0,5.7,0C33.8,15.8,33.8,14.8,33.8,13.9z"/>
	<path class="st0" d="M33.8,18.4c-1.9,0-3.8,0-5.7,0c0,0.9,0,1.9,0,2.9c1.9,0,3.8,0,5.7,0C33.8,20.3,33.8,19.3,33.8,18.4z"/>
	<path class="st0" d="M33.8,22.9c-1.9,0-3.8,0-5.7,0c0,0.9,0,1.9,0,2.9c1.9,0,3.8,0,5.7,0C33.8,24.8,33.8,23.8,33.8,22.9z"/>
	<path class="st0" d="M33.8,27.3c-1.9,0-3.8,0-5.7,0c0,1,0,1.9,0,2.9c1.9,0,3.8,0,5.7,0C33.8,29.2,33.8,28.3,33.8,27.3z"/>
</g>
</svg>
