<?xml version="1.0" encoding="utf-8"?>
<!-- Generator: Adobe Illustrator 19.2.1, SVG Export Plug-In . SVG Version: 6.00 Build 0)  -->
<svg version="1.1" id="Layer_1" xmlns="http://www.w3.org/2000/svg" xmlns:xlink="http://www.w3.org/1999/xlink" x="0px" y="0px"
	 viewBox="0 0 40 40" style="enable-background:new 0 0 40 40;" xml:space="preserve">
<style type="text/css">
	.st0{fill:#2A579A;}
</style>
<path class="st0" d="M37.9,7.3c0.1-0.9-0.6-1.7-1.6-1.6c-4.4-0.1-8.7,0-13.1,0c0-1.1,0-2.2,0-3.3h-2.4C14.6,3.6,8.3,4.6,2.1,5.7
	c0,9.5,0,19,0,28.5c6.2,1.1,12.4,2.1,18.6,3.3h2.5c0-1.1,0-2.2,0-3.3c4.1,0,8.2,0,12.2,0c0.7,0,1.5,0,2.1-0.4
	c0.5-0.7,0.4-1.6,0.4-2.5C37.9,23.4,38,15.3,37.9,7.3z M15.7,25.5c-0.7,0.4-1.7,0-2.5,0c-0.5-2.7-1.2-5.4-1.7-8.1
	c-0.5,2.6-1.1,5.2-1.6,7.9c-0.8,0-1.6-0.1-2.4-0.1C6.8,21.6,6,18.1,5.4,14.5c0.7,0,1.4-0.1,2.1-0.1c0.4,2.6,0.9,5.2,1.3,7.8
	c0.6-2.7,1.2-5.3,1.7-8c0.8,0,1.5-0.1,2.3-0.1c0.5,2.8,1.1,5.5,1.7,8.2c0.5-2.8,1-5.7,1.5-8.5c0.8,0,1.6-0.1,2.4-0.1
	C17.5,17.6,16.7,21.6,15.7,25.5z M36.7,33c-4.5,0-9,0-13.5,0c0-1.1,0-2.2,0-3.3c3.5,0,7.1,0,10.6,0c0-0.5,0-1.1,0-1.6
	c-3.5,0-7.1,0-10.6,0c0-0.7,0-1.4,0-2c3.5,0,7.1,0,10.6,0c0-0.5,0-1.1,0-1.6c-3.5,0-7.1,0-10.6,0c0-0.7,0-1.4,0-2
	c3.5,0,7.1,0,10.6,0c0-0.5,0-1.1,0-1.6c-3.5,0-7.1,0-10.6,0c0-0.7,0-1.4,0-2c3.5,0,7.1,0,10.6,0c0-0.5,0-1.1,0-1.6
	c-3.5,0-7.1,0-10.6,0c0-0.7,0-1.4,0-2c3.5,0,7.1,0,10.6,0c0-0.5,0-1.1,0-1.6c-3.5,0-7.1,0-10.6,0c0-0.7,0-1.4,0-2
	c3.5,0,7.1,0,10.6,0c0-0.5,0-1.1,0-1.6c-3.5,0-7.1,0-10.6,0c0-0.9,0-1.9,0-2.9c4.5,0,9,0,13.5,0C36.7,15.6,36.7,24.4,36.7,33z"/>
</svg>
