<?xml version="1.0" encoding="utf-8"?>
<!-- Generator: Adobe Illustrator 19.2.0, SVG Export Plug-In . SVG Version: 6.00 Build 0)  -->
<svg version="1.1" id="Layer_1" xmlns="http://www.w3.org/2000/svg" xmlns:xlink="http://www.w3.org/1999/xlink" x="0px" y="0px"
	 viewBox="0 0 40 40" style="enable-background:new 0 0 40 40;" xml:space="preserve">
<style type="text/css">
	.st0{fill:#231F20;}
	.st1{fill:#EC2227;}
	.st2{fill:#FFFFFF;}
</style>
<path class="st0" d="M27.5,1H5.9v37h31.8V9.6L27.5,1z M28.2,3.1l7.3,6.2h-7.3V3.1z M36.5,36.9H6.9V2.1h20.1l0.1,0.1v8.2h9.4V36.9z"
	/>
<path class="st1" d="M32.9,24c0-0.2-0.2-0.4-0.3-0.6l0,0c-0.4-0.4-1.4-0.7-3-0.7c-1,0-2.3,0.1-3.5,0.3c-0.6-0.3-1.2-0.7-1.6-1.1
	c-1.3-1.2-2.3-2.8-3-4.6c0-0.2,0.1-0.3,0.1-0.5c0,0,0.7-4,0.5-5.4c0-0.2,0-0.2-0.1-0.4l-0.1-0.2c-0.2-0.4-0.6-0.9-1.2-0.9l-0.4,0
	c-0.7,0-1.2,0.3-1.3,0.8c-0.4,1.6,0,4,0.8,7l-0.2,0.5c-0.6,1.4-1.3,2.8-1.9,4.1l-0.1,0.2c-0.7,1.3-1.3,2.4-1.8,3.4l-0.6,0.3
	c0,0-1,0.5-1.2,0.7c-1.9,1.2-3.2,2.5-3.4,3.5c-0.1,0.3,0,0.8,0.3,1l0.6,0.3c0.2,0.1,0.5,0.2,0.7,0.2c1.4,0,3-1.7,5.2-5.6
	c2.6-0.8,5.5-1.5,8-1.9c1.9,1.1,4.3,1.9,5.8,1.9c0.3,0,0.5,0,0.7-0.1c0.3-0.1,0.5-0.2,0.7-0.5C32.9,25.2,33,24.6,32.9,24z
	 M11.9,30.8c0.3-0.7,1.3-2.1,2.7-3.3c0.1-0.1,0.3-0.3,0.5-0.5C13.6,29.5,12.6,30.5,11.9,30.8z M20.6,10.7c0.4,0,0.7,1.1,0.7,2.2
	c0,1.1-0.2,1.8-0.5,2.3c-0.3-0.8-0.4-2.1-0.4-2.9C20.5,12.3,20.4,10.7,20.6,10.7z M18,25L18,25c0.3-0.6,0.6-1.1,1-1.8
	c0.8-1.5,1.3-2.7,1.7-3.7c0.8,1.4,1.7,2.5,2.8,3.5c0.1,0.1,0.3,0.2,0.4,0.3C21.7,23.8,19.7,24.4,18,25z M32.1,24.9L32.1,24.9
	C32,25,31.6,25,31.4,25c-0.8,0-1.8-0.4-3.2-1c0.5,0,1-0.1,1.5-0.1c0.8,0,1.1,0,1.8,0.2C32.3,24.4,32.3,24.8,32.1,24.9z"/>
<rect x="1" y="3.9" class="st1" width="15" height="8"/>
<g>
	<path class="st2" d="M2.8,5.7h1.5c1,0,1.6,0.5,1.6,1.4c0,0.9-0.6,1.4-1.5,1.4H3.6v1.7H2.8V5.7z M4.2,7.9c0.6,0,0.8-0.3,0.8-0.8
		c0-0.6-0.2-0.8-0.8-0.8H3.6v1.6H4.2z"/>
	<path class="st2" d="M6.8,5.7h1.5c1.4,0,2.1,0.7,2.1,2.1v0.1c0,1.4-0.7,2.2-2.1,2.2H6.8V5.7z M8.3,9.5c0.9,0,1.3-0.4,1.3-1.5V7.8
		c0-1.1-0.5-1.5-1.4-1.5H7.6v3.2H8.3z"/>
	<path class="st2" d="M11.4,5.7h2.7v0.6h-1.9v1.4h1.5v0.6h-1.5v1.9h-0.8V5.7z"/>
</g>
</svg>
